<svg width="17" height="20" viewBox="0 0 17 20" fill="none" xmlns="http://www.w3.org/2000/svg">
<path d="M8.77427 19.8853C8.67836 19.8859 8.58328 19.8675 8.49449 19.8312C8.4057 19.7949 8.32494 19.7415 8.25684 19.674L3.10445 14.5726C2.36057 13.8336 1.77021 12.9548 1.36734 11.9867C0.964481 11.0187 0.75708 9.98047 0.75708 8.93193C0.75708 7.88338 0.964481 6.84519 1.36734 5.87713C1.77021 4.90906 2.36057 4.03024 3.10445 3.29126C4.61448 1.79946 6.65161 0.962891 8.77427 0.962891C10.8969 0.962891 12.9341 1.79946 14.4441 3.29126C15.188 4.03024 15.7783 4.90906 16.1812 5.87713C16.5841 6.84519 16.7915 7.88338 16.7915 8.93193C16.7915 9.98047 16.5841 11.0187 16.1812 11.9867C15.7783 12.9548 15.188 13.8336 14.4441 14.5726L9.29169 19.674C9.2236 19.7415 9.14284 19.7949 9.05405 19.8312C8.96526 19.8675 8.87018 19.8859 8.77427 19.8853ZM8.77427 2.39488C7.03489 2.39061 5.36504 3.07742 4.13201 4.30425C3.52475 4.90773 3.04281 5.62535 2.71395 6.4158C2.38508 7.20625 2.21578 8.05393 2.21578 8.91006C2.21578 9.7662 2.38508 10.6139 2.71395 11.4043C3.04281 12.1948 3.52475 12.9124 4.13201 13.5159L8.77427 18.129L13.4165 13.5159C14.0238 12.9124 14.5057 12.1948 14.8346 11.4043C15.1635 10.6139 15.3328 9.7662 15.3328 8.91006C15.3328 8.05393 15.1635 7.20625 14.8346 6.4158C14.5057 5.62535 14.0238 4.90773 13.4165 4.30425C12.1835 3.07742 10.5136 2.39061 8.77427 2.39488Z" fill="#98C9E2"/>
<path d="M8.77397 12.5977C8.05329 12.5977 7.34879 12.384 6.74956 11.9836C6.15033 11.5833 5.68329 11.0142 5.4075 10.3483C5.13171 9.68251 5.05955 8.94986 5.20014 8.24302C5.34074 7.53619 5.68778 6.88692 6.19739 6.37732C6.70699 5.86772 7.35626 5.52067 8.06309 5.38008C8.76993 5.23948 9.50258 5.31164 10.1684 5.58743C10.8342 5.86322 11.4033 6.33027 11.8037 6.92949C12.2041 7.52872 12.4178 8.23322 12.4178 8.9539C12.4178 9.92031 12.0339 10.8471 11.3506 11.5305C10.6672 12.2138 9.74038 12.5977 8.77397 12.5977ZM8.77397 6.7676C8.34156 6.7676 7.91886 6.89582 7.55932 7.13606C7.19979 7.37629 6.91956 7.71774 6.75409 8.11724C6.58861 8.51673 6.54531 8.95633 6.62967 9.38043C6.71403 9.80453 6.92226 10.1941 7.22802 10.4999C7.53378 10.8056 7.92334 11.0138 8.34744 11.0982C8.77154 11.1826 9.21114 11.1393 9.61063 10.9738C10.0101 10.8083 10.3516 10.5281 10.5918 10.1685C10.832 9.80901 10.9603 9.38631 10.9603 8.9539C10.9603 8.37406 10.7299 7.81796 10.3199 7.40795C9.90991 6.99794 9.35381 6.7676 8.77397 6.7676Z" fill="#98C9E2"/>
</svg>
