<svg width="56" height="20" viewBox="0 0 56 20" fill="none" xmlns="http://www.w3.org/2000/svg">
<path d="M41.2352 2.29485L40.1574 4.7973H42.3189L41.2352 2.29485ZM28.7976 3.84557C29.0008 3.74401 29.1204 3.52311 29.1204 3.24879C29.1204 2.97997 28.9947 2.78528 28.7916 2.6938C28.6066 2.59238 28.3219 2.58067 28.0489 2.58067H26.1206V3.97498H28.0231C28.3278 3.97505 28.5824 3.97077 28.7976 3.84557ZM4.0888 2.29485L3.02316 4.7973H5.16087L4.0888 2.29485ZM53.7035 18.3263H50.6794V16.9799H53.6913C53.9899 16.9799 54.1991 16.9424 54.325 16.8243C54.444 16.7191 54.5113 16.5704 54.5101 16.4149C54.5101 16.232 54.4342 16.0867 54.3187 15.9998C54.2053 15.9039 54.0396 15.8603 53.7669 15.8603C52.2965 15.8125 50.4621 15.9038 50.4621 13.9169C50.4621 13.0063 51.0657 12.0478 52.709 12.0478H55.8284V10.7985H52.9302C52.0556 10.7985 51.4201 10.9992 50.9703 11.3114V10.7985H46.6836C45.9982 10.7985 45.1936 10.9613 44.813 11.3114V10.7985H37.1576V11.3114C36.5485 10.8902 35.5204 10.7985 35.0461 10.7985H29.9967V11.3114C29.5148 10.8641 28.4427 10.7985 27.7897 10.7985H22.1385L20.8455 12.1394L19.6344 10.7985H11.1926V19.5602H19.4751L20.8074 18.1978L22.0626 19.5602L27.1679 19.5645V17.5034H27.67C28.3473 17.5138 29.1462 17.4874 29.8513 17.1955V19.5599H34.0623V17.2762H34.2654C34.5245 17.2762 34.5502 17.2866 34.5502 17.5348V19.5594H47.3428C48.1549 19.5594 49.004 19.3604 49.474 18.9985V19.5594H53.5318C54.3761 19.5594 55.2008 19.446 55.8282 19.1557V17.5235C55.448 18.0564 54.7064 18.3266 53.7034 18.3266L53.7035 18.3263ZM27.737 16.2575H25.783V18.3635H22.7393L20.811 16.285L18.8071 18.3635H12.6041V12.0847H18.9025L20.8291 14.1429L22.821 12.0847H27.8249C29.0676 12.0847 30.464 12.4145 30.464 14.1533C30.464 15.8974 29.1059 16.2575 27.737 16.2575ZM37.1329 15.9728C37.3541 16.2793 37.386 16.5654 37.3925 17.1189V18.3635H35.8201V17.5781C35.8201 17.2003 35.8582 16.641 35.567 16.349C35.3384 16.1242 34.9895 16.0705 34.418 16.0705H32.7445V18.3635H31.1711V12.0848H34.7863C35.5794 12.0848 36.1567 12.1186 36.6706 12.3811C37.1648 12.6672 37.4759 13.0591 37.4759 13.7754C37.4757 14.7775 36.7782 15.2887 36.366 15.4458C36.7143 15.569 36.9992 15.7899 37.1329 15.9728ZM43.6017 13.3833H39.9346V14.5247H43.5121V15.8058H39.9346V17.0551L43.6017 17.0606V18.3635H38.3751V12.0847H43.6017V13.3833ZM47.6257 18.3634H44.5758V17.017H47.6136C47.9107 17.017 48.1213 16.9794 48.2533 16.8615C48.3609 16.7644 48.4383 16.6232 48.4383 16.4522C48.4383 16.2691 48.3545 16.1238 48.2472 16.0367C48.1274 15.941 47.962 15.8977 47.6895 15.8977C46.225 15.8495 44.3909 15.9409 44.3909 13.9541C44.3909 13.0434 44.9882 12.0848 46.6299 12.0848H49.7695V13.421H46.8967C46.6119 13.421 46.4268 13.4314 46.2694 13.5347C46.0976 13.6364 46.0341 13.7872 46.0341 13.9862C46.0341 14.223 46.1798 14.3843 46.3767 14.4539C46.5419 14.509 46.7193 14.5251 46.9861 14.5251L47.8292 14.5471C48.679 14.5666 49.2628 14.7078 49.6175 15.0519C49.9222 15.3542 50.086 15.736 50.086 16.3821C50.0858 17.7328 49.205 18.3634 47.6257 18.3634ZM35.4802 13.4846C35.291 13.3769 35.0118 13.3711 34.7331 13.3711H32.8047V14.7812H34.7073C35.0119 14.7812 35.271 14.7709 35.4802 14.6518C35.6832 14.5343 35.8047 14.3177 35.8047 14.0492C35.8047 13.7807 35.6832 13.5863 35.4802 13.4846ZM52.9771 13.371C52.6923 13.371 52.5029 13.3814 52.3434 13.4844C52.1782 13.5863 52.1148 13.737 52.1148 13.9362C52.1148 14.1729 52.2542 14.3342 52.4571 14.4039C52.6225 14.459 52.7997 14.4751 53.0605 14.4751L53.9094 14.4967C54.7658 14.5171 55.3377 14.6583 55.6863 15.0024C55.7498 15.0501 55.7879 15.1038 55.8316 15.1576V13.3711H52.9773L52.9771 13.371ZM27.7913 13.371H25.7494V14.9701H27.7731C28.3747 14.9701 28.7489 14.684 28.7492 14.1409C28.7489 13.5918 28.3566 13.371 27.7913 13.371ZM14.1638 13.371V14.5126H17.6016V15.7937H14.1638V17.0428H18.0139L19.8028 15.2008L18.0899 13.371H14.1638ZM24.2174 17.7618V12.728L21.8132 15.2044L24.2174 17.7618ZM14.2952 7.68098V8.76284H27.3784L27.3724 6.47414H27.6256C27.8029 6.48007 27.8545 6.49571 27.8545 6.77617V8.76291H34.6213V8.23005C35.167 8.5103 36.0159 8.76291 37.1329 8.76291H39.9797L40.589 7.36867H41.9397L42.5355 8.76291H48.0212V7.43851L48.8518 8.76284H53.248V0.00830078H48.8975V1.04223L48.2883 0.00830078H43.8241V1.04223L43.2647 0.00830078H37.2345C36.225 0.00830078 35.3379 0.143282 34.6212 0.519517V0.00830078H30.4597V0.519517C30.0036 0.131713 29.3821 0.00830078 28.6913 0.00830078H13.4883L12.4683 2.26957L11.4207 0.00830078H6.63231V1.04223L6.10617 0.00830078H2.02244L0.126048 4.17088V7.50051L2.93024 1.22321H5.257L7.92021 7.16648V1.22321H10.4762L12.5256 5.48156L14.4083 1.22321H17.0156V7.50051H15.4105L15.4046 2.58424L13.1338 7.50051H11.7588L9.48222 2.57988V7.50051H6.29693L5.69523 6.10034H2.43467L1.82675 7.50051H0.125977V8.76334H2.80176L3.40504 7.36902H4.75585L5.35756 8.76334H10.6221V7.69727L11.0919 8.76776H13.8248L14.2948 7.6812L14.2952 7.68098ZM34.9117 1.9549C35.4177 1.45389 36.2107 1.22285 37.2898 1.22285H38.8058V2.56788H37.3216C36.7504 2.56788 36.4274 2.6493 36.1167 2.93984C35.8496 3.20409 35.6665 3.70373 35.6665 4.36164C35.6665 5.03419 35.8061 5.51906 36.097 5.8358C36.3381 6.0842 36.7764 6.15954 37.1885 6.15954H37.892L40.099 1.22307H42.4454L45.0967 7.16041V1.22314H47.4811L50.2338 5.59491V1.22314H51.8379V7.50022H49.6187L46.6504 2.78885V7.50022H43.4611L42.8518 6.10005H39.5987L39.0075 7.50022H37.1748C36.4137 7.50022 35.45 7.33896 34.9042 6.80588C34.3538 6.27296 34.0677 5.55098 34.0677 4.40957C34.0674 3.47848 34.2383 2.62745 34.9117 1.9549ZM31.6907 1.22292H33.2884V7.50022H31.6907V1.22292ZM24.4866 1.22292H28.0884C28.8885 1.22292 29.4785 1.24328 29.9848 1.5236C30.4802 1.80399 30.7772 2.21336 30.7772 2.91341C30.7772 3.91435 30.0799 4.43135 29.6739 4.58668C30.0165 4.71167 30.3093 4.93242 30.4488 5.11526C30.6699 5.4275 30.7079 5.70639 30.7079 6.26696V7.50015H29.1285L29.1226 6.70854C29.1226 6.33074 29.1603 5.78752 28.8754 5.48571C28.6466 5.26502 28.2978 5.21696 27.7339 5.21696H26.0528V7.50022H24.4868L24.4866 1.22292ZM18.1737 1.22292H23.4051V2.5301H19.7398V3.66159H23.3171V4.94835H19.7398V6.20197H23.4051V7.50015H18.1737V1.22292Z" fill="#2557D6"/>
</svg>
