<svg width="17" height="17" viewBox="0 0 17 17" fill="none" xmlns="http://www.w3.org/2000/svg">
<path fill-rule="evenodd" clip-rule="evenodd" d="M8.77434 1.96597C5.0897 1.96597 2.1027 4.90277 2.1027 8.52549C2.1027 12.1482 5.0897 15.085 8.77434 15.085C12.459 15.085 15.446 12.1482 15.446 8.52549C15.446 4.90277 12.459 1.96597 8.77434 1.96597ZM0.620117 8.52549C0.620117 4.09772 4.27089 0.508301 8.77434 0.508301C13.2778 0.508301 16.9286 4.09772 16.9286 8.52549C16.9286 12.9533 13.2778 16.5427 8.77434 16.5427C4.27089 16.5427 0.620117 12.9533 0.620117 8.52549Z" fill="#98C9E2"/>
<path fill-rule="evenodd" clip-rule="evenodd" d="M8.77425 3.42383C9.18366 3.42383 9.51555 3.75014 9.51555 4.15266V8.07523L12.0709 9.33146C12.4371 9.51147 12.5856 9.94926 12.4025 10.3093C12.2194 10.6693 11.7741 10.8152 11.4079 10.6352L8.44274 9.17756C8.1916 9.05411 8.03296 8.80174 8.03296 8.52567V4.15266C8.03296 3.75014 8.36485 3.42383 8.77425 3.42383Z" fill="#98C9E2"/>
</svg>
