<svg width="21" height="19" viewBox="0 0 21 19" fill="none" xmlns="http://www.w3.org/2000/svg">
<path d="M1.52995 18.1645C1.4359 18.165 1.34278 18.1457 1.25674 18.1077C1.17069 18.0697 1.09366 18.014 1.0307 17.9441C0.967743 17.8742 0.92029 17.7918 0.891459 17.7023C0.862628 17.6127 0.853073 17.5181 0.863421 17.4246L1.37665 12.7589C1.39492 12.6098 1.46303 12.4712 1.56994 12.3656L12.4744 1.46118C12.6725 1.26267 12.9078 1.10518 13.1669 0.997726C13.4259 0.890271 13.7036 0.834961 13.9841 0.834961C14.2646 0.834961 14.5423 0.890271 14.8013 0.997726C15.0604 1.10518 15.2957 1.26267 15.4938 1.46118L17.5667 3.53409C17.7652 3.73221 17.9227 3.96753 18.0302 4.22658C18.1376 4.48563 18.1929 4.76333 18.1929 5.04379C18.1929 5.32424 18.1376 5.60195 18.0302 5.861C17.9227 6.12005 17.7652 6.35537 17.5667 6.55348L6.66891 17.4513C6.56336 17.5582 6.42478 17.6263 6.27566 17.6446L1.60994 18.1578L1.52995 18.1645ZM2.68305 13.1322L2.28313 16.7448L5.89574 16.3448L16.6269 5.61367C16.7015 5.53937 16.7606 5.45107 16.801 5.35385C16.8414 5.25663 16.8621 5.15239 16.8621 5.04712C16.8621 4.94185 16.8414 4.83762 16.801 4.7404C16.7606 4.64317 16.7015 4.55488 16.6269 4.48057L14.5473 2.40099C14.473 2.32642 14.3847 2.26726 14.2875 2.22689C14.1903 2.18652 14.086 2.16574 13.9808 2.16574C13.8755 2.16574 13.7713 2.18652 13.674 2.22689C13.5768 2.26726 13.4885 2.32642 13.4142 2.40099L2.68305 13.1322Z" fill="#215E99"/>
<path d="M15.5272 8.30664C15.4395 8.30715 15.3525 8.29034 15.2713 8.25717C15.1901 8.224 15.1162 8.17512 15.0539 8.11335L10.9148 3.96086C10.8526 3.89871 10.8033 3.82493 10.7697 3.74373C10.7361 3.66253 10.7188 3.57551 10.7188 3.48762C10.7188 3.39973 10.7361 3.3127 10.7697 3.2315C10.8033 3.15031 10.8526 3.07653 10.9148 3.01438C10.9769 2.95223 11.0507 2.90294 11.1319 2.8693C11.2131 2.83567 11.3001 2.81836 11.388 2.81836C11.4759 2.81836 11.5629 2.83567 11.6441 2.8693C11.7253 2.90294 11.7991 2.95223 11.8612 3.01438L16.0137 7.16687C16.0762 7.22884 16.1258 7.30256 16.1596 7.38378C16.1935 7.465 16.2109 7.55212 16.2109 7.64011C16.2109 7.7281 16.1935 7.81522 16.1596 7.89644C16.1258 7.97767 16.0762 8.05139 16.0137 8.11335C15.9499 8.17674 15.8739 8.22655 15.7902 8.25977C15.7066 8.29299 15.6171 8.30894 15.5272 8.30664Z" fill="#215E99"/>
<path d="M10.9176 7.16928L5.72852 12.3584L6.67113 13.301L11.8602 8.1119L10.9176 7.16928Z" fill="#215E99"/>
<path d="M20.1924 18.1651H9.52786C9.35108 18.1651 9.18155 18.0949 9.05655 17.9699C8.93155 17.8449 8.86133 17.6753 8.86133 17.4986C8.86133 17.3218 8.93155 17.1523 9.05655 17.0273C9.18155 16.9023 9.35108 16.832 9.52786 16.832H20.1924C20.3691 16.832 20.5387 16.9023 20.6637 17.0273C20.7887 17.1523 20.8589 17.3218 20.8589 17.4986C20.8589 17.6753 20.7887 17.8449 20.6637 17.9699C20.5387 18.0949 20.3691 18.1651 20.1924 18.1651Z" fill="#215E99"/>
</svg>
