<svg width="49" height="17" viewBox="0 0 49 17" fill="none" xmlns="http://www.w3.org/2000/svg">
<path d="M29.7782 4.00423C29.7782 6.21882 27.9905 8.00649 25.7759 8.01454C23.5613 8.01454 21.7737 6.22687 21.7656 4.01229C21.7656 1.80576 23.5533 0.0100352 25.7598 0.00198024C27.9744 -0.00607474 29.7701 1.7816 29.7782 4.00423C29.7782 3.99618 29.7782 3.99618 29.7782 4.00423Z" fill="#F27923"/>
<path d="M3.01208 0.235561H0.854419V7.78845H3.01262C3.99479 7.84483 4.96139 7.53069 5.71802 6.91099C6.57936 6.1941 7.07072 5.13138 7.07072 4.01227C7.07072 1.80575 5.40387 0.235561 3.01208 0.235561ZM4.73531 5.90466C4.26812 6.30741 3.67259 6.50073 2.7221 6.50073H2.31935V1.50825H2.71405C3.664 1.50825 4.24396 1.6774 4.72725 2.12043C5.25083 2.60373 5.54833 3.28786 5.54027 3.9967C5.55692 4.72917 5.25888 5.4133 4.73531 5.90466ZM7.74734 0.235561H9.22086V7.78845H7.74734C7.74734 7.78899 7.74734 0.235561 7.74734 0.235561ZM12.8279 3.13482C11.9263 2.81262 11.6846 2.59513 11.6846 2.18487C11.6846 1.7746 12.1518 1.3638 12.7876 1.3638C13.2548 1.37185 13.6892 1.59739 13.9712 1.97597L14.7444 0.969639C14.1323 0.4219 13.3434 0.124402 12.5298 0.124402C11.306 0.0438518 10.2508 0.977693 10.1783 2.194C10.1783 2.21816 10.1783 2.24233 10.1783 2.26649C10.1783 3.30505 10.6536 3.83668 12.0385 4.33609C12.3929 4.44886 12.7312 4.6019 13.0529 4.78716C13.3348 4.94826 13.504 5.2463 13.504 5.5685C13.504 6.16457 13.0126 6.63927 12.4251 6.63122C12.401 6.63122 12.3849 6.63122 12.3607 6.63122C11.676 6.63927 11.0402 6.25263 10.7502 5.62488L9.80028 6.5265C10.348 7.44423 11.3463 8.00003 12.4171 7.96781C13.947 7.96781 15.0258 6.94536 15.0258 5.48795C15.0022 4.28614 14.4947 3.74646 12.8279 3.13482ZM15.4613 4.01227C15.4452 6.17047 17.1846 7.94203 19.3428 7.95814C19.383 7.95814 19.4152 7.95814 19.4555 7.95814C20.0999 7.95814 20.7357 7.8051 21.3076 7.50706V5.78383C20.8566 6.31546 20.1966 6.61296 19.5039 6.61296C18.1431 6.65323 17.0079 5.58246 16.9676 4.22117C16.9676 4.14867 16.9676 4.07618 16.9676 4.01174C16.9193 2.62682 18.0062 1.46744 19.3911 1.41911C19.4152 1.41911 19.4314 1.41911 19.4555 1.41911C20.1644 1.42716 20.8324 1.73325 21.2996 2.26434V0.533059C20.7438 0.235024 20.1241 0.0819795 19.4958 0.0819795C17.3054 0.0497596 15.4935 1.80521 15.4619 3.99563C15.4613 3.99616 15.4613 4.00422 15.4613 4.01227ZM32.9831 5.30053L30.9699 0.227506H29.3674L32.5723 7.98177H33.3616L36.6228 0.227506H35.0285L32.9831 5.30053ZM37.2828 7.78899H41.4617V6.50878H38.7563V4.47141H41.3656V3.1912H38.7569V1.5163H41.4623V0.235561H37.2834L37.2828 7.78899ZM47.3 2.46625C47.3 1.04911 46.3259 0.235561 44.6268 0.235561H42.4525V7.78845H43.926V4.75279H44.1193L46.1648 7.78845H47.9686L45.5848 4.6078C46.6234 4.4553 47.3805 3.52092 47.3 2.46625ZM44.3449 3.71424H43.8938V1.4277H44.3449C45.2465 1.4277 45.762 1.81434 45.762 2.5468C45.762 3.27927 45.2868 3.71424 44.3449 3.71424ZM48.4674 0.630255C48.4674 0.501376 48.3788 0.428881 48.2177 0.428881H48.0083V1.08939H48.1694V0.83163L48.3627 1.08939H48.556L48.3144 0.81552C48.403 0.807465 48.4755 0.726915 48.4674 0.630255ZM48.1936 0.71886H48.1694V0.549705H48.2016C48.2822 0.549705 48.3224 0.57387 48.3224 0.63831C48.3224 0.70275 48.2741 0.71886 48.1936 0.71886ZM48.258 0.17112C47.9358 0.163066 47.67 0.420825 47.67 0.743025C47.6619 1.06522 47.9197 1.33104 48.2419 1.33104C48.5641 1.33909 48.8299 1.08133 48.8299 0.759135V0.751079C48.8299 0.436935 48.5721 0.179175 48.258 0.17112ZM48.258 1.23438C48.0083 1.23438 47.8069 1.033 47.8069 0.7833C47.8069 0.775245 47.8069 0.76719 47.8069 0.759135C47.8069 0.50943 48.0083 0.308056 48.258 0.308056C48.5077 0.308056 48.7091 0.50943 48.7091 0.759135C48.7252 1.00884 48.5319 1.21827 48.2822 1.23438C48.2741 1.23438 48.258 1.23438 48.258 1.23438ZM0.51611 13.9811C0.491945 12.717 1.49023 11.6618 2.76291 11.6377C2.79513 11.6377 2.82735 11.6377 2.85957 11.6377C3.69675 11.5813 4.4942 12.0082 4.91306 12.7407L4.30088 13.1192C4.04312 12.5634 3.47175 12.2257 2.85957 12.2821C1.9499 12.2659 1.20078 12.999 1.19273 13.9006C1.19273 13.9247 1.19273 13.9489 1.19273 13.9811C1.13634 14.8425 1.78074 15.5916 2.64209 15.648C2.68236 15.648 2.72264 15.656 2.77097 15.648C3.52008 15.7205 4.19616 15.1888 4.30088 14.4483H2.72264V13.8039H4.94528V16.2274H4.28477V15.5185L4.30893 15.3494C4.04312 15.9696 3.39926 16.3477 2.72264 16.2832C1.51439 16.2999 0.51611 15.3338 0.5 14.1261C0.51611 14.0778 0.51611 14.0295 0.51611 13.9811ZM5.75024 11.3396H6.42686V16.2354H5.75024V11.3396ZM7.07072 14.5525C7.07072 13.5864 7.85205 12.8051 8.81811 12.8051C9.78417 12.8051 10.5655 13.5864 10.5655 14.5525C10.5655 15.5185 9.78417 16.2999 8.81811 16.2999C7.86011 16.3079 7.07877 15.5347 7.07072 14.5767C7.07072 14.5605 7.07072 14.5605 7.07072 14.5525ZM9.89694 14.5525C9.87278 13.9564 9.37337 13.4978 8.77784 13.5139C8.18231 13.53 7.72317 14.0375 7.73928 14.633C7.76345 15.213 8.23064 15.6635 8.81006 15.6716C9.41418 15.6635 9.89694 15.1641 9.88889 14.5605C9.89694 14.5605 9.89694 14.5525 9.89694 14.5525ZM11.8618 15.7446V16.236H11.2013V11.324H11.8699V13.3614C12.1437 13.007 12.5707 12.8056 13.0131 12.8056C13.9792 12.8056 14.7605 13.587 14.7605 14.553C14.7605 15.5191 13.9792 16.2924 13.0131 16.3004C12.5707 16.2999 12.1437 16.0985 11.8618 15.7446ZM14.0442 14.5444C14.0845 13.9403 13.6253 13.4173 13.0137 13.377C12.4096 13.3367 11.8865 13.7959 11.8462 14.4075C11.8462 14.4558 11.8462 14.5042 11.8462 14.5444C11.806 15.1486 12.2651 15.6716 12.8767 15.7119C13.4809 15.7521 14.0039 15.293 14.0442 14.6814C14.0442 14.6411 14.0442 14.5928 14.0442 14.5444ZM15.1794 15.358C15.1794 14.6894 15.5983 14.3919 16.5079 14.2792C17.1604 14.1986 17.3854 14.1503 17.3854 13.9167C17.3854 13.675 17.2082 13.377 16.6927 13.377C16.2899 13.3448 15.9274 13.6267 15.8474 14.0295L15.203 13.7556C15.4366 13.1515 16.0402 12.7734 16.6846 12.8137C17.5379 12.8137 18.0615 13.2648 18.0615 14.0778V16.236H17.4101V15.7124C17.1926 16.1152 16.7496 16.3488 16.299 16.3004C15.6385 16.2999 15.1794 15.9057 15.1794 15.358ZM17.1443 15.4466C17.3134 15.2935 17.4101 15.0841 17.4101 14.8586V14.5686C17.4101 14.6975 17.1765 14.7297 16.669 14.7861C16.1616 14.8505 15.848 14.9955 15.848 15.3016C15.848 15.6077 16.0654 15.7044 16.3876 15.7044C16.661 15.7205 16.9349 15.6238 17.1443 15.4466ZM18.795 11.3396H19.4555V16.2354H18.7789L18.795 11.3396ZM21.8065 11.694H22.5476L24.8024 15.1324V11.694H25.4629V16.2274H24.7863L22.467 12.7245V16.2274H21.8065V11.694ZM26.1143 14.5686C26.0982 13.6186 26.8554 12.8293 27.8053 12.8132C27.8214 12.8132 27.8375 12.8132 27.8536 12.8132C28.7714 12.7809 29.5447 13.5059 29.5769 14.4236C29.5769 14.4558 29.5769 14.488 29.5769 14.5283V14.8102H26.7587C26.9037 15.4385 27.532 15.8246 28.1517 15.6796C28.4497 15.6072 28.7075 15.4299 28.8686 15.1722L29.4244 15.5024C29.0941 16.026 28.5066 16.3316 27.8945 16.3079C26.9606 16.3563 26.1551 15.6313 26.1068 14.6975C26.1143 14.6411 26.1143 14.6089 26.1143 14.5686ZM26.7829 14.2308H28.9169C28.8364 13.7234 28.3853 13.3614 27.8703 13.4017C27.3623 13.3851 26.9118 13.7314 26.7829 14.2308ZM30.5188 15.1324V13.4817H29.8502V12.8776H30.5188V12.1526L31.1793 11.7257V12.8771H32.1131V13.4812H31.1793V15.1319C31.1793 15.4944 31.3645 15.6635 31.6304 15.6635C31.8076 15.6635 31.9767 15.6233 32.1298 15.5266V16.1549C31.9606 16.2596 31.7754 16.3079 31.582 16.2918C30.9054 16.2838 30.5188 15.9621 30.5188 15.1324ZM32.4998 12.8776H33.1925L33.9738 15.3333L34.8754 12.8937H35.5279L36.4295 15.3333L37.2345 12.8937H37.9433L36.7678 16.2354H36.1395L35.2379 13.7717L34.2719 16.2354H33.6114L32.4998 12.8776ZM38.1769 14.5525C38.1769 13.5864 38.9582 12.8051 39.9243 12.8051C40.8904 12.8051 41.6717 13.5864 41.6717 14.5525C41.6717 15.5185 40.8904 16.2999 39.9243 16.2999C38.9663 16.3079 38.185 15.5347 38.1769 14.5767C38.1769 14.5605 38.1769 14.5605 38.1769 14.5525ZM41.0031 14.5525C40.979 13.9564 40.4796 13.4978 39.884 13.5139C39.288 13.5381 38.8294 14.0375 38.8455 14.633C38.8696 15.213 39.3449 15.6716 39.9243 15.6716C40.5284 15.6635 41.0112 15.1722 41.0031 14.5686C41.0031 14.5605 41.0031 14.5525 41.0031 14.5525ZM42.3075 12.8776H42.968V13.4495C43.1291 13.0709 43.5158 12.8454 43.926 12.8776H44.2079V13.5623H43.8052C43.2736 13.5623 42.968 13.7797 42.968 14.4236V16.2274H42.3075V12.8776ZM46.1003 14.7055L45.4962 15.358V16.2354H44.8357V11.3396H45.4962V14.5928L47.0583 12.8776H47.8794L46.5831 14.2867L47.9358 16.2274H47.1464L46.1003 14.7055Z" fill="#35363A"/>
</svg>
