<svg width="219" height="35" viewBox="0 0 219 35" fill="none" xmlns="http://www.w3.org/2000/svg">
<path d="M198.139 28.3843C198.732 28.3843 199.233 28.1791 199.644 27.7687C200.077 27.3355 200.305 26.8226 200.328 26.2298V7.28424C200.305 6.55469 199.997 5.97332 199.404 5.54015C199.039 5.26657 198.618 5.12978 198.139 5.12978H197.694V4.7878H212.844C213.824 4.7878 214.691 4.70801 215.443 4.54842C216.218 4.38883 216.708 4.26344 216.913 4.17224V11.217H216.572V10.9434C216.572 9.11952 215.91 7.8428 214.588 7.11325C213.95 6.74847 213.186 6.55469 212.297 6.53189H207.338V16.0731H211.066C212.16 16.0503 213.049 15.6969 213.733 15.0129C214.417 14.3062 214.759 13.4056 214.759 12.3113V12.1745H215.101V21.6815H214.759V21.5105C214.759 20.439 214.417 19.5612 213.733 18.8773C213.049 18.1705 212.171 17.8058 211.1 17.783H207.338V26.9822H211.544C213.209 26.9822 214.679 26.435 215.956 25.3407C217.233 24.2463 218.133 22.7302 218.658 20.7924H219L217.7 28.7262H197.694V28.3843H198.139Z" fill="#173559"/>
<path d="M192.668 8.5485C193.033 9.34645 193.215 10.1786 193.215 11.0449C193.215 11.8885 193.124 12.6408 192.941 13.302C192.759 13.9403 192.474 14.5787 192.086 15.2171C191.243 16.585 189.795 17.4285 187.743 17.7477C188.632 17.9985 189.43 18.4431 190.137 19.0814C190.89 19.7198 191.596 20.6089 192.257 21.7488C193.967 24.667 195.278 26.5479 196.19 27.3915C196.874 28.0298 197.74 28.3604 198.789 28.3832V28.7252H194.514C191.551 28.7252 189.43 28.3946 188.154 27.7334C186.33 26.7987 185.03 25.1914 184.255 22.9116C184.05 22.2504 183.868 21.5551 183.708 20.8255C183.571 20.0959 183.446 19.5716 183.332 19.2524C183.241 18.9104 183.127 18.6026 182.99 18.3291C182.853 18.0327 182.705 17.8047 182.545 17.6451C182.272 17.3715 181.953 17.1663 181.588 17.0295V16.6876H182.135C183.457 16.6876 184.449 16.0834 185.11 14.8751C185.452 14.2367 185.657 13.5528 185.726 12.8232C185.817 12.0709 185.862 11.6035 185.862 11.4211C185.862 11.2387 185.862 11.1247 185.862 11.0791C185.703 8.06973 184.403 6.56503 181.964 6.56503H180.459V26.2287C180.459 26.8215 180.676 27.3345 181.109 27.7676C181.542 28.178 182.055 28.3832 182.648 28.3832H183.058V28.7252H170.781V28.3832H171.226C171.819 28.3832 172.32 28.178 172.731 27.7676C173.164 27.3573 173.392 26.8557 173.414 26.2629V7.28318C173.392 6.43964 173.027 5.81268 172.32 5.4023C171.978 5.21992 171.613 5.12872 171.226 5.12872H170.781V4.78674H184.153C188.621 4.78674 191.459 6.04066 192.668 8.5485Z" fill="#173559"/>
<path d="M169.411 5.12872H168.864C168.385 5.12872 167.963 5.28831 167.598 5.60749C167.256 5.90387 167.074 6.28005 167.051 6.73602V19.9364C167.051 22.8318 166.151 25.1002 164.35 26.7417C162.571 28.3832 160.063 29.204 156.826 29.204C152.722 29.204 149.656 28.406 147.627 26.8101C145.598 25.2142 144.583 22.9344 144.583 19.9706V6.83861C144.583 6.33704 144.401 5.92667 144.036 5.60749C143.694 5.28831 143.272 5.12872 142.771 5.12872H142.224V4.78674H153.953V5.12872H153.406C152.905 5.12872 152.483 5.28831 152.141 5.60749C151.799 5.90387 151.617 6.29145 151.594 6.77021V19.8338C151.594 22.2276 152.141 24.0971 153.235 25.4422C154.33 26.7873 155.857 27.4599 157.818 27.4599C159.778 27.4599 161.306 26.8329 162.4 25.579C163.517 24.3023 164.076 22.5354 164.076 20.2783V6.77021C164.053 6.29145 163.871 5.90387 163.529 5.60749C163.187 5.28831 162.765 5.12872 162.264 5.12872H161.716V4.78674H169.411V5.12872Z" fill="#173559"/>
<path d="M132.777 6.46217V26.2627C132.799 26.8554 133.016 27.357 133.426 27.7674C133.859 28.1778 134.372 28.3829 134.965 28.3829H135.41V28.7249H123.133V28.3829H123.577C124.17 28.3829 124.672 28.1778 125.082 27.7674C125.515 27.357 125.743 26.8668 125.766 26.2969V6.46217H122.38C121.013 6.48497 119.941 6.89534 119.166 7.69329C118.391 8.46844 118.003 9.53997 118.003 10.9079V11.1473L117.661 11.1815V4.13672C117.98 4.27351 118.55 4.4103 119.371 4.54709C120.215 4.68388 120.99 4.75228 121.696 4.75228H136.846C137.553 4.75228 138.317 4.68388 139.137 4.54709C139.958 4.4103 140.539 4.27351 140.881 4.13672V11.1815L140.539 11.1473V10.9079C140.539 9.0612 139.855 7.76168 138.488 7.00933C137.826 6.66735 137.04 6.48497 136.128 6.46217H132.777Z" fill="#173559"/>
<path d="M121.863 28.3825H122.137V28.7245H109.176V28.3825H109.483C109.985 28.3825 110.361 28.2344 110.612 27.938C110.863 27.6188 110.988 27.3338 110.988 27.083C110.988 26.8094 110.931 26.5245 110.817 26.2281L109.483 23.0477H102.165L100.797 26.2281C100.683 26.5245 100.626 26.7638 100.626 26.9462C100.626 27.1286 100.66 27.3338 100.729 27.5618C100.82 27.767 100.991 27.9608 101.242 28.1432C101.515 28.3027 101.8 28.3825 102.097 28.3825H102.404V28.7245H94.7783V28.3825H95.0861C95.6105 28.3825 96.1234 28.2344 96.625 27.938C97.1494 27.6188 97.5825 27.1514 97.9245 26.5359L105.893 9.0608C107.101 6.50737 107.751 4.80888 107.842 3.96533H108.15L118.99 26.5017C119.72 27.7556 120.677 28.3825 121.863 28.3825ZM102.917 21.3378H108.765L105.893 14.4982L102.917 21.3378Z" fill="#173559"/>
<path d="M105.043 33.3428C103.653 34.2092 102.148 34.6423 100.529 34.6423C99.1158 34.6423 97.6453 34.2206 96.1178 33.377C94.5447 32.5335 93.0058 31.3366 91.5011 29.7863L76.4882 14.2605V26.2981C76.4882 26.8909 76.6934 27.3924 77.1038 27.8028C77.5142 28.1904 78.0043 28.3842 78.5743 28.3842H79.2241V28.7261H66.7077V28.3842H67.3574C67.9274 28.3842 68.4176 28.1904 68.8279 27.8028C69.2383 27.3924 69.4435 26.8909 69.4435 26.2981V6.94215C65.9325 3.20319 62.8547 1.33371 60.2101 1.33371C59.5489 1.33371 58.9106 1.44771 58.295 1.67569L58.124 1.36791C59.4007 0.455971 60.7801 0 62.262 0C63.2423 0 64.2454 0.193788 65.2714 0.581363C66.2745 0.946138 67.1522 1.36791 67.9046 1.84668C69.3181 2.78142 70.572 3.80735 71.6663 4.92448L85.7216 19.4585V7.21573C85.6988 6.62297 85.4822 6.1328 85.0719 5.74522C84.6615 5.33485 84.1713 5.12966 83.6014 5.12966H82.9516V4.78769H95.468V5.12966H94.8524C94.2825 5.12966 93.7923 5.33485 93.3819 5.74522C92.9716 6.1328 92.755 6.61157 92.7322 7.18153V26.7085L93.3477 27.3582C93.3477 27.3582 93.6099 27.6432 94.1343 28.2132C94.6814 28.7831 95.0462 29.1593 95.2286 29.3417C95.4338 29.5241 95.8328 29.8775 96.4255 30.4018C97.0183 30.949 97.4971 31.3252 97.8618 31.5303C98.2266 31.7583 98.7282 32.0433 99.3665 32.3853C100.005 32.7501 100.586 32.9781 101.111 33.0692C101.703 33.206 102.33 33.2744 102.992 33.2744C103.653 33.2744 104.291 33.1832 104.907 33.0009L105.043 33.3428Z" fill="#173559"/>
<path d="M60.3748 13.8825V27.0828C60.39 27.478 60.5344 27.8123 60.808 28.0859C61.0967 28.3595 61.4387 28.4963 61.8339 28.4963H62.1303V28.7243H53.9456V28.4963H54.242C54.6372 28.4963 54.9715 28.3595 55.2451 28.0859C55.5339 27.8123 55.6859 27.4856 55.7011 27.1056V13.8825H53.444C52.5321 13.8977 51.8178 14.1712 51.301 14.7032C50.7842 15.22 50.5258 15.9343 50.5258 16.8463V17.0059L50.2979 17.0286V12.3322C50.5106 12.4233 50.8906 12.5145 51.4378 12.6057C52.0001 12.6969 52.5169 12.7425 52.9881 12.7425H63.0878C63.559 12.7425 64.0682 12.6969 64.6153 12.6057C65.1625 12.5145 65.5501 12.4233 65.778 12.3322V17.0286L65.5501 17.0059V16.8463C65.5501 15.6151 65.0941 14.7488 64.1821 14.2472C63.7414 14.0192 63.217 13.8977 62.609 13.8825H60.3748Z" fill="#215E99"/>
<path d="M49.1913 23.5736C49.1913 25.4126 48.5378 26.7881 47.2307 27.7001C45.9235 28.5968 44.1833 29.0452 42.0098 29.0452C40.7483 29.0452 39.6388 28.9084 38.6812 28.6348C37.7237 28.346 37.0321 27.9889 36.6066 27.5633C36.4698 27.2289 36.4014 26.8717 36.4014 26.4918C36.4014 26.0966 36.4318 25.7166 36.4926 25.3518C36.6597 24.4551 36.9409 23.7559 37.3361 23.2544H37.5413C37.5261 23.3456 37.5185 23.4444 37.5185 23.5508C37.5185 24.6755 37.9593 25.6862 38.8408 26.583C39.7375 27.4645 40.9535 27.9053 42.4886 27.9053C43.5221 27.9053 44.3125 27.6925 44.8596 27.2669C45.422 26.8261 45.7032 26.3322 45.7032 25.785C45.7032 25.2226 45.5132 24.7439 45.1332 24.3487C44.7532 23.9535 44.1377 23.5584 43.2865 23.1632L39.5704 21.4305C38.5216 20.9593 37.7617 20.2982 37.2905 19.447C36.9105 18.7783 36.7205 18.0411 36.7205 17.2356C36.7205 15.5941 37.2753 14.3478 38.3848 13.4966C39.312 12.7975 40.5431 12.4479 42.0782 12.4479C43.0813 12.4479 44.3656 12.5239 45.9311 12.6759H47.7094L47.2079 16.392H46.9799C46.9799 15.5561 46.6531 14.8797 45.9995 14.363C45.346 13.8462 44.51 13.5878 43.4917 13.5878C42.4886 13.5878 41.7058 13.7626 41.1435 14.1122C40.5963 14.4617 40.2999 14.9253 40.2543 15.5029C40.1935 16.2172 40.6495 16.8252 41.6222 17.3268C41.7894 17.418 42.0098 17.5167 42.2834 17.6231L46.5467 19.6066C48.3098 20.4122 49.1913 21.7345 49.1913 23.5736Z" fill="#215E99"/>
<path d="M23.056 28.3834C23.5804 28.3834 24.025 28.201 24.3898 27.8362C24.7545 27.4714 24.9369 27.0382 24.9369 26.5367V10.3611C24.9369 9.67717 24.6291 9.1528 24.0136 8.78803C23.7172 8.62844 23.398 8.54864 23.056 8.54864H22.3379V8.20667H34.5465L34.5123 8.54864H33.8283C33.0988 8.54864 32.5516 8.84502 32.1869 9.43779C32.0273 9.71137 31.9361 10.0191 31.9133 10.3611V26.5709C31.9133 27.2548 32.2324 27.7792 32.8708 28.144C33.1672 28.3036 33.4864 28.3834 33.8283 28.3834H34.5123L34.5465 28.7253H22.3379V28.3834H23.056Z" fill="#173559"/>
<path d="M0 9.47103C0.957538 8.69588 2.25705 8.09172 3.89855 7.65855C5.54004 7.22538 7.24993 7.00879 9.02821 7.00879C10.8293 7.00879 12.4594 7.25957 13.9185 7.76114C15.4004 8.23991 16.5745 8.95806 17.4409 9.9156C18.3072 10.8731 18.7404 12.0017 18.7404 13.3012C18.7404 14.3271 18.387 15.3986 17.6803 16.5158C17.2927 17.1541 16.4149 18.0205 15.047 19.1148C14.2035 19.7988 12.9724 20.5511 11.3537 21.3719C9.75777 22.1926 8.90282 22.6372 8.78883 22.7056H15.2864C16.2895 22.7056 17.1673 22.4434 17.9196 21.919C18.6948 21.3719 19.3787 20.5283 19.9715 19.3884H20.3135L17.988 28.7244H0.205187V28.4166C0.957538 27.5275 1.94927 26.4217 3.18039 25.0994C4.41151 23.7771 5.43745 22.66 6.25819 21.748C7.10174 20.8133 7.94528 19.7988 8.78883 18.7044C10.5215 16.4702 11.3879 14.4069 11.3879 12.5146C11.3879 11.2607 11.0117 10.3032 10.2593 9.64202C9.52978 8.95806 8.61784 8.61609 7.52351 8.61609C5.83642 8.61609 4.5939 9.22025 3.79595 10.4286C3.0208 11.6141 2.63323 13.2442 2.63323 15.3188H2.29125L0 9.47103Z" fill="#173559"/>
</svg>
