<svg width="18" height="13" viewBox="0 0 18 13" fill="none" xmlns="http://www.w3.org/2000/svg">
<path d="M15.493 2.33074C15.463 2.29116 15.4253 2.25779 15.3822 2.23253C15.339 2.20726 15.2913 2.19061 15.2416 2.18351C15.1919 2.17642 15.1412 2.17902 15.0926 2.19117C15.0439 2.20332 14.9981 2.22478 14.9579 2.25432L8.79254 6.77902C8.77049 6.79528 8.74366 6.80408 8.7161 6.80408C8.68853 6.80408 8.6617 6.79528 8.63965 6.77902L2.59533 2.23428C2.55542 2.20434 2.50991 2.18242 2.46139 2.16977C2.41287 2.15713 2.36229 2.154 2.31254 2.16057C2.26279 2.16715 2.21485 2.18329 2.17144 2.20808C2.12804 2.23287 2.09002 2.26582 2.05957 2.30506C2.02912 2.34429 2.00683 2.38904 1.99396 2.43674C1.9811 2.48445 1.97792 2.53418 1.98461 2.58309C1.99129 2.63201 2.00771 2.67915 2.03292 2.72182C2.05814 2.7645 2.09165 2.80187 2.13156 2.83181L6.88394 6.40572L2.1838 9.88819C2.14331 9.91788 2.10916 9.95513 2.08331 9.99779C2.05746 10.0405 2.04041 10.0877 2.03313 10.1369C2.02585 10.186 2.0285 10.2361 2.0409 10.2842C2.05331 10.3324 2.07524 10.3776 2.10544 10.4174C2.13564 10.4573 2.17352 10.4908 2.21692 10.5162C2.26031 10.5417 2.30838 10.5584 2.35836 10.5656C2.40835 10.5727 2.45928 10.5701 2.50825 10.5579C2.55721 10.5457 2.60325 10.5242 2.64375 10.4945L7.51462 6.87924L8.1746 7.38031C8.32849 7.49613 8.51656 7.55951 8.71036 7.56086C8.90415 7.56222 9.09312 7.50148 9.24867 7.38783L9.94178 6.87924L14.87 10.4945C14.9102 10.524 14.956 10.5455 15.0047 10.5576C15.0533 10.5697 15.104 10.5723 15.1536 10.5652C15.2033 10.5582 15.2511 10.5415 15.2943 10.5162C15.3374 10.491 15.3751 10.4576 15.4051 10.4181C15.4351 10.3785 15.457 10.3335 15.4693 10.2857C15.4817 10.2378 15.4843 10.188 15.4771 10.1392C15.4699 10.0903 15.4529 10.0433 15.4272 10.0009C15.4016 9.95851 15.3676 9.92147 15.3274 9.89195L10.5801 6.40447L15.4153 2.85311C15.4955 2.79356 15.5486 2.70536 15.5632 2.6076C15.5777 2.50983 15.5525 2.41037 15.493 2.33074Z" fill="#98C9E2"/>
<path fill-rule="evenodd" clip-rule="evenodd" d="M2.28533 1.96168C2.36161 1.9516 2.43916 1.95639 2.51356 1.97578C2.58796 1.99517 2.65774 2.02878 2.71893 2.07469L8.71659 6.58435L14.8358 2.09349C14.8975 2.04818 14.9677 2.01528 15.0423 1.99665C15.117 1.97802 15.1946 1.97403 15.2708 1.98491C15.347 1.99579 15.4203 2.02133 15.4864 2.06006C15.5526 2.0988 15.6103 2.14997 15.6564 2.21065L15.6573 2.21183C15.7485 2.33393 15.7871 2.48645 15.7648 2.63636C15.7425 2.78626 15.6611 2.9215 15.5381 3.0128L15.5372 3.01342L10.9206 6.40423L15.4493 9.73107C15.4492 9.73105 15.4493 9.73109 15.4493 9.73107C15.5109 9.77633 15.563 9.83315 15.6023 9.89816C15.6417 9.96319 15.6677 10.0352 15.6787 10.1101C15.6898 10.185 15.6858 10.2613 15.6668 10.3347C15.6479 10.4081 15.6145 10.477 15.5684 10.5377C15.5224 10.5984 15.4646 10.6495 15.3985 10.6882C15.3323 10.7269 15.2591 10.7525 15.1829 10.7633C15.1067 10.7742 15.0291 10.7702 14.9545 10.7516C14.8798 10.733 14.8097 10.7001 14.748 10.6549L9.94173 7.12907L9.37053 7.5482C9.17943 7.68783 8.94693 7.7627 8.70884 7.76104C8.47075 7.75937 8.23969 7.6815 8.05063 7.53921L8.04994 7.5387L7.51315 7.13115L2.7665 10.6542L2.76556 10.6549C2.70361 10.7003 2.63316 10.7333 2.55825 10.752C2.48333 10.7706 2.40541 10.7746 2.32893 10.7637C2.25245 10.7527 2.17892 10.7271 2.11252 10.6882C2.04612 10.6493 1.98817 10.5979 1.94196 10.537C1.89576 10.4761 1.8622 10.4069 1.84322 10.3332C1.82424 10.2595 1.8202 10.1829 1.83133 10.1077C1.84247 10.0325 1.86855 9.96025 1.9081 9.89497C1.94755 9.82987 1.99961 9.77302 2.06133 9.72765C2.06116 9.72778 2.0615 9.72753 2.06133 9.72765L6.54675 6.40428L2.00782 2.99089C2.0078 2.99088 2.00784 2.99091 2.00782 2.99089M8.67016 6.61842C8.67004 6.61852 8.67029 6.61833 8.67016 6.61842V6.61842ZM2.40909 2.36326C2.38644 2.35736 2.36284 2.3559 2.33962 2.35896C2.3164 2.36203 2.29403 2.36956 2.27377 2.38113C2.25351 2.3927 2.23577 2.40808 2.22156 2.42639C2.20735 2.4447 2.19695 2.46559 2.19094 2.48785C2.18494 2.51011 2.18346 2.53332 2.18658 2.55615C2.1897 2.57897 2.19736 2.60097 2.20913 2.62089C2.22089 2.64081 2.23654 2.65825 2.25516 2.67222L7.221 6.40666L2.30642 10.048L2.30561 10.0486C2.28658 10.0626 2.27053 10.0801 2.25838 10.1001C2.24623 10.1202 2.23821 10.1424 2.23479 10.1655C2.23137 10.1886 2.23261 10.2121 2.23844 10.2347C2.24428 10.2574 2.25458 10.2787 2.26878 10.2974C2.28297 10.3161 2.30078 10.3319 2.32118 10.3438C2.34157 10.3557 2.36416 10.3636 2.38766 10.367C2.41115 10.3704 2.43509 10.3691 2.45811 10.3634C2.48095 10.3577 2.50245 10.3477 2.52137 10.3339C2.52123 10.334 2.52152 10.3338 2.52137 10.3339L7.51595 6.62682L8.29845 7.2209C8.29833 7.22082 8.29856 7.22099 8.29845 7.2209C8.4171 7.31008 8.56239 7.35914 8.71174 7.36019C8.86113 7.36123 9.00681 7.31444 9.12676 7.22689C9.12667 7.22695 9.12684 7.22682 9.12676 7.22689L9.9417 6.6289L14.9918 10.3336C15.0106 10.3474 15.032 10.3574 15.0547 10.3631C15.0774 10.3687 15.1011 10.37 15.1243 10.3666C15.1475 10.3633 15.1698 10.3556 15.1899 10.3438C15.2101 10.332 15.2277 10.3164 15.2417 10.2979C15.2557 10.2795 15.2659 10.2585 15.2716 10.2361C15.2774 10.2138 15.2786 10.1905 15.2753 10.1677C15.2719 10.1449 15.264 10.123 15.252 10.1032C15.24 10.0834 15.2242 10.0661 15.2054 10.0523L10.2394 6.4042L15.2924 2.6929C15.2923 2.69299 15.2925 2.69281 15.2924 2.6929C15.3296 2.66512 15.3546 2.62381 15.3614 2.57833C15.3681 2.53296 15.3565 2.4868 15.3291 2.44974C15.3152 2.43152 15.2978 2.41615 15.2778 2.40448C15.2577 2.39269 15.2354 2.38492 15.2122 2.38161C15.189 2.3783 15.1654 2.37951 15.1427 2.38518C15.12 2.39085 15.0986 2.40086 15.0798 2.41465L8.91479 6.93911C8.91477 6.93912 8.9148 6.9391 8.91479 6.93911M2.40909 2.36326C2.4317 2.36915 2.45291 2.37936 2.47151 2.3933L2.40909 2.36326Z" fill="#98C9E2"/>
<path d="M15.0179 0.723633H2.53175C2.02488 0.723633 1.53878 0.921601 1.18037 1.27399C0.821958 1.62637 0.620605 2.10431 0.620605 2.60266L0.620605 10.1188C0.620605 10.6171 0.821958 11.0951 1.18037 11.4474C1.53878 11.7998 2.02488 11.9978 2.53175 11.9978H15.0179C15.5248 11.9978 16.0109 11.7998 16.3693 11.4474C16.7277 11.0951 16.9291 10.6171 16.9291 10.1188V2.60266C16.9291 2.10431 16.7277 1.62637 16.3693 1.27399C16.0109 0.921601 15.5248 0.723633 15.0179 0.723633ZM16.1646 10.1188C16.1646 10.4178 16.0438 10.7045 15.8287 10.916C15.6137 11.1274 15.322 11.2462 15.0179 11.2462H2.53175C2.22763 11.2462 1.93597 11.1274 1.72092 10.916C1.50588 10.7045 1.38506 10.4178 1.38506 10.1188V2.60266C1.38506 2.30365 1.50588 2.01689 1.72092 1.80546C1.93597 1.59403 2.22763 1.47524 2.53175 1.47524H15.0179C15.322 1.47524 15.6137 1.59403 15.8287 1.80546C16.0438 2.01689 16.1646 2.30365 16.1646 2.60266V10.1188Z" fill="#98C9E2"/>
<path fill-rule="evenodd" clip-rule="evenodd" d="M1.03597 1.13201C1.43261 0.742034 1.97057 0.522949 2.53151 0.522949H15.0177C15.5786 0.522949 16.1166 0.742034 16.5132 1.13201C16.9098 1.52198 17.1327 2.0509 17.1327 2.60241V10.1185C17.1327 10.67 16.9098 11.1989 16.5132 11.5889C16.1166 11.9789 15.5786 12.198 15.0177 12.198H2.53151C1.97057 12.198 1.43261 11.9789 1.03597 11.5889C0.639334 11.1989 0.416504 10.67 0.416504 10.1185V2.60241C0.416504 2.0509 0.639334 1.52198 1.03597 1.13201ZM2.53151 0.923809C2.0787 0.923809 1.64445 1.10066 1.32427 1.41546C1.00409 1.73026 0.824215 2.15722 0.824215 2.60241V10.1185C0.824215 10.5637 1.00409 10.9907 1.32427 11.3055C1.64445 11.6203 2.0787 11.7971 2.53151 11.7971H15.0177C15.4705 11.7971 15.9047 11.6203 16.2249 11.3055C16.5451 10.9907 16.725 10.5637 16.725 10.1185V2.60241C16.725 2.15721 16.5451 1.73026 16.2249 1.41546C15.9047 1.10066 15.4705 0.923809 15.0177 0.923809H2.53151ZM2.53151 1.67542C2.28145 1.67542 2.04164 1.77308 1.86482 1.94693C1.68801 2.12077 1.58867 2.35655 1.58867 2.60241V10.1185C1.58867 10.3644 1.68801 10.6002 1.86482 10.774C2.04164 10.9478 2.28145 11.0455 2.53151 11.0455H15.0177C15.2677 11.0455 15.5075 10.9478 15.6844 10.774C15.8612 10.6002 15.9605 10.3644 15.9605 10.1185V2.60241C15.9605 2.35656 15.8612 2.12077 15.6844 1.94693C15.5075 1.77308 15.2677 1.67542 15.0177 1.67542H2.53151ZM1.57653 1.66348C1.8298 1.41446 2.17332 1.27456 2.53151 1.27456H15.0177C15.3759 1.27456 15.7194 1.41446 15.9726 1.66348C16.2259 1.9125 16.3682 2.25024 16.3682 2.60241V10.1185C16.3682 10.4707 16.2259 10.8084 15.9726 11.0575C15.7194 11.3065 15.3759 11.4464 15.0177 11.4464H2.53151C2.17332 11.4464 1.8298 11.3065 1.57653 11.0575C1.32325 10.8084 1.18096 10.4707 1.18096 10.1185V2.60241C1.18096 2.25024 1.32325 1.9125 1.57653 1.66348Z" fill="#98C9E2"/>
</svg>
