<svg width="21" height="24" viewBox="0 0 21 24" fill="none" xmlns="http://www.w3.org/2000/svg">
<path fill-rule="evenodd" clip-rule="evenodd" d="M8.90464 5.47552C9.64414 5.6788 10.2561 5.84701 10.8594 5.84701C11.4647 5.84701 12.0789 5.67875 12.8204 5.4756C12.8663 5.46302 12.9128 5.4503 12.9597 5.43747C13.7174 5.23053 14.6122 4.99743 15.5434 5.08085C17.4044 5.24751 18.7817 6.16013 19.6577 7.68794C20.5058 9.16699 20.8594 11.1747 20.8594 13.5393C20.8594 15.6356 20.0327 18.0758 18.9347 19.9811C18.3825 20.9393 17.7403 21.8001 17.0606 22.432C16.4015 23.0449 15.6017 23.5393 14.744 23.5393C13.4431 23.5393 12.6893 23.1979 12.0944 22.864C12.0239 22.8244 11.9589 22.7874 11.8983 22.7529C11.4629 22.5048 11.2536 22.3855 10.8594 22.3855C10.4651 22.3855 10.2556 22.5048 9.82012 22.7529C9.75954 22.7875 9.69458 22.8245 9.62415 22.864C9.02919 23.1979 8.27544 23.5393 6.97476 23.5393C6.11715 23.5393 5.31742 23.0448 4.6583 22.432C3.97864 21.8001 3.33649 20.9393 2.78425 19.9811C1.68621 18.0758 0.859375 15.6356 0.859375 13.5393C0.859375 11.1633 1.25255 9.15694 2.11911 7.68109C3.0085 6.16635 4.37773 5.24937 6.17219 5.08114L6.17274 5.08109C7.10533 4.99433 8.0015 5.22799 8.75945 5.43565C8.8084 5.44906 8.85679 5.46236 8.90464 5.47552ZM6.31553 6.61291C5.0332 6.7332 4.09482 7.35467 3.44579 8.46005C2.77389 9.60439 2.39784 11.3 2.39784 13.5393C2.39784 15.2892 3.10946 17.4643 4.11719 19.2129C4.61784 20.0816 5.1704 20.8074 5.70588 21.3053C6.26191 21.8223 6.69775 22.0009 6.97476 22.0009C7.94331 22.0009 8.43812 21.7654 8.87129 21.5223C8.92461 21.4924 8.97999 21.4601 9.03774 21.4265C9.46876 21.1752 10.0318 20.847 10.8594 20.847C11.6869 20.847 12.2499 21.1752 12.6808 21.4265C12.7386 21.4601 12.794 21.4924 12.8473 21.5224C13.2804 21.7654 13.7752 22.0009 14.744 22.0009C15.0211 22.0009 15.4571 21.8222 16.0131 21.3053C16.5486 20.8074 17.1011 20.0816 17.6017 19.2129C18.6094 17.4644 19.3209 15.2892 19.3209 13.5393C19.3209 11.2886 18.9774 9.59435 18.3231 8.4532C17.6967 7.36082 16.7662 6.73497 15.4061 6.61318L15.4061 6.61317C14.7863 6.55765 14.1427 6.70917 13.3651 6.92157C13.3058 6.93777 13.2455 6.95439 13.1843 6.97126C12.4916 7.16229 11.6823 7.38547 10.8594 7.38547C10.0375 7.38547 9.22897 7.1617 8.53748 6.97033C8.47498 6.95304 8.41344 6.93601 8.35293 6.91943C7.57554 6.70645 6.93333 6.5555 6.31553 6.61291Z" fill="#215E99"/>
<path d="M14.1248 3.69043C13.1152 4.70004 11.9296 4.98851 11.2969 5.07456C11.2391 5.0829 11.1801 5.07795 11.1244 5.06008C11.0688 5.04221 11.0179 5.01189 10.9758 4.97143C10.9336 4.93097 10.9012 4.88143 10.881 4.82658C10.8609 4.77172 10.8535 4.71299 10.8594 4.65485C10.9735 3.57339 11.4597 2.56514 12.2349 1.80245C13.2926 0.744755 14.4464 0.509179 15.058 0.463505C15.1151 0.458296 15.1726 0.465914 15.2264 0.485804C15.2801 0.505693 15.3288 0.537349 15.3687 0.578458C15.4087 0.619566 15.4389 0.669087 15.4573 0.723397C15.4756 0.777707 15.4816 0.835433 15.4748 0.892352C15.3541 1.95085 14.8782 2.93719 14.1248 3.69043Z" fill="#215E99"/>
<path d="M8.93607 16.6164C9.57332 16.6164 10.0899 15.5832 10.0899 14.3087C10.0899 13.0342 9.57332 12.001 8.93607 12.001C8.29882 12.001 7.78223 13.0342 7.78223 14.3087C7.78223 15.5832 8.29882 16.6164 8.93607 16.6164Z" fill="#215E99"/>
<path d="M12.7828 16.6164C13.42 16.6164 13.9366 15.5832 13.9366 14.3087C13.9366 13.0342 13.42 12.001 12.7828 12.001C12.1455 12.001 11.6289 13.0342 11.6289 14.3087C11.6289 15.5832 12.1455 16.6164 12.7828 16.6164Z" fill="#215E99"/>
</svg>
