<svg width="60" height="16" viewBox="0 0 60 16" fill="none" xmlns="http://www.w3.org/2000/svg">
<path d="M10.0293 0.869455C9.28668 0.358916 8.31759 0.103027 7.12206 0.103027H2.49361C2.12711 0.103027 1.92462 0.286322 1.88616 0.65247L0.00590182 12.4548C-0.0136391 12.5707 0.0153627 12.6768 0.0926421 12.7731C0.169479 12.8698 0.266123 12.9178 0.381865 12.9178H2.58035C2.96595 12.9178 3.17789 12.7349 3.2168 12.3682L3.73742 9.18636C3.75643 9.03216 3.82425 8.90678 3.93999 8.81022C4.05564 8.71384 4.2003 8.65071 4.37387 8.62189C4.54744 8.59324 4.7111 8.57883 4.86566 8.57883C5.01978 8.57883 5.2029 8.58855 5.41537 8.60774C5.62731 8.62701 5.76242 8.63639 5.82034 8.63639C7.47875 8.63639 8.78047 8.16908 9.7256 7.23351C10.6703 6.29829 11.1432 5.00143 11.1432 3.34266C11.1432 2.20487 10.7716 1.38043 10.0293 0.8691V0.869455ZM7.64286 4.41334C7.54613 5.08843 7.29572 5.53177 6.89075 5.74398C6.4857 5.95645 5.90717 6.06203 5.15515 6.06203L4.20048 6.09103L4.69236 2.9957C4.73073 2.78376 4.85602 2.67765 5.06832 2.67765H5.61812C6.38914 2.67765 6.94876 2.7888 7.2959 3.0102C7.64286 3.23214 7.7586 3.70005 7.64286 4.41334Z" fill="#003087"/>
<path d="M58.8737 0.102539H56.7332C56.5206 0.102539 56.3954 0.208645 56.3572 0.420765L54.4768 12.4548L54.4478 12.5126C54.4478 12.6095 54.4864 12.7007 54.5637 12.7875C54.6404 12.8741 54.7372 12.9176 54.8529 12.9176H56.7623C57.1282 12.9176 57.3308 12.7347 57.3699 12.368L59.2501 0.536507V0.50777C59.25 0.237823 59.1242 0.102805 58.8737 0.102805V0.102539Z" fill="#009CDE"/>
<path d="M33.013 4.76043C33.013 4.66423 32.9742 4.57245 32.8975 4.4858C32.8201 4.39906 32.7333 4.35547 32.6371 4.35547H30.4097C30.1971 4.35547 30.0236 4.45238 29.8889 4.64469L26.8226 9.15767L25.5498 4.81844C25.4529 4.51003 25.241 4.35547 24.9134 4.35547H22.7436C22.6469 4.35547 22.5601 4.39897 22.4834 4.4858C22.4061 4.57245 22.3677 4.66432 22.3677 4.76043C22.3677 4.79934 22.5557 5.36797 22.9317 6.46721C23.3077 7.56663 23.7127 8.7527 24.1467 10.0256C24.5807 11.2983 24.807 11.9736 24.8265 12.0503C23.245 14.2104 22.4545 15.3676 22.4545 15.5216C22.4545 15.7726 22.5798 15.8978 22.8306 15.8978H25.058C25.2701 15.8978 25.4436 15.8016 25.5788 15.6086L32.9554 4.96274C32.9937 4.92445 33.013 4.85725 33.013 4.76035V4.76043Z" fill="#003087"/>
<path d="M53.7539 4.3554H51.5554C51.2851 4.3554 51.1217 4.67363 51.0638 5.31008C50.5619 4.53905 49.6464 4.15283 48.3155 4.15283C46.9269 4.15283 45.7455 4.67363 44.7718 5.71504C43.7978 6.75655 43.311 7.98135 43.311 9.389C43.311 10.5271 43.6436 11.4334 44.3089 12.1081C44.9741 12.7835 45.866 13.1206 46.985 13.1206C47.5441 13.1206 48.113 13.0047 48.6915 12.7735C49.2701 12.5421 49.7229 12.2337 50.0513 11.8478C50.0513 11.8672 50.0317 11.9537 49.9935 12.1079C49.9546 12.2625 49.9356 12.3785 49.9356 12.4551C49.9356 12.764 50.0606 12.9179 50.3117 12.9179H52.3079C52.6738 12.9179 52.8863 12.735 52.9439 12.3682L54.1301 4.81811C54.1491 4.70236 54.1203 4.59644 54.0433 4.49988C53.9659 4.40377 53.8697 4.3554 53.7539 4.3554ZM49.9789 10.0543C49.4871 10.5364 48.8941 10.7775 48.1999 10.7775C47.6404 10.7775 47.1876 10.6234 46.8402 10.3147C46.4929 10.0067 46.3194 9.58237 46.3194 9.04177C46.3194 8.32875 46.5605 7.72572 47.0427 7.23393C47.5243 6.74213 48.1227 6.49624 48.8363 6.49624C49.3758 6.49624 49.8243 6.65539 50.1813 6.97344C50.5378 7.29167 50.7167 7.73058 50.7167 8.28984C50.7166 8.98403 50.4706 9.57238 49.9789 10.0543Z" fill="#009CDE"/>
<path d="M20.8918 4.3554H18.6933C18.4229 4.3554 18.2593 4.67363 18.2014 5.31008C17.6807 4.53905 16.7646 4.15283 15.4532 4.15283C14.0647 4.15283 12.8833 4.67363 11.9095 5.71504C10.9355 6.75655 10.4487 7.98135 10.4487 9.389C10.4487 10.5271 10.7815 11.4334 11.4468 12.1081C12.1122 12.7835 13.0039 13.1206 14.1226 13.1206C14.6623 13.1206 15.2219 13.0047 15.8004 12.7735C16.3789 12.5421 16.8418 12.2337 17.1889 11.8478C17.1116 12.0791 17.0732 12.2817 17.0732 12.4551C17.0732 12.764 17.1985 12.9179 17.4492 12.9179H19.4452C19.8114 12.9179 20.0238 12.735 20.0817 12.3682L21.2677 4.81811C21.2867 4.70236 21.2578 4.59644 21.1809 4.49988C21.1037 4.40377 21.0074 4.3554 20.8918 4.3554ZM17.1167 10.0686C16.6248 10.5417 16.0219 10.7775 15.3088 10.7775C14.7491 10.7775 14.3008 10.6234 13.9635 10.3147C13.6259 10.0067 13.4572 9.58237 13.4572 9.04177C13.4572 8.32875 13.6982 7.72572 14.1805 7.23393C14.6623 6.74213 15.2602 6.49624 15.974 6.49624C16.5137 6.49624 16.9621 6.65539 17.3193 6.97353C17.6758 7.29175 17.8544 7.73067 17.8544 8.28993C17.8544 9.0034 17.6085 9.59661 17.1167 10.0686Z" fill="#003087"/>
<path d="M42.8912 0.868967C42.1487 0.358427 41.1798 0.102539 39.9841 0.102539H35.3844C34.9986 0.102539 34.7863 0.285834 34.7481 0.651982L32.8677 12.4543C32.8482 12.5703 32.8771 12.6764 32.9545 12.7727C33.0309 12.8693 33.1279 12.9173 33.2437 12.9173H35.6157C35.8471 12.9173 36.0013 12.7921 36.0785 12.5413L36.5993 9.18587C36.6184 9.03167 36.686 8.90629 36.8018 8.80973C36.9176 8.71336 37.062 8.65031 37.2358 8.6214C37.4093 8.59275 37.5728 8.57834 37.7276 8.57834C37.8817 8.57834 38.0648 8.58806 38.277 8.60725C38.4891 8.62653 38.6246 8.6359 38.682 8.6359C40.3407 8.6359 41.6422 8.1686 42.5873 7.23302C43.5324 6.2978 44.0048 5.00094 44.0048 3.34217C44.005 2.20447 43.6335 1.38004 42.8912 0.868701V0.868967ZM39.9261 5.62775C39.5018 5.91697 38.8654 6.06154 38.017 6.06154L37.0912 6.09054L37.583 2.99521C37.6212 2.78327 37.7465 2.67716 37.959 2.67716H38.4795C38.9037 2.67716 39.2412 2.69644 39.4923 2.7349C39.7426 2.77381 39.9841 2.89397 40.2155 3.09645C40.4469 3.29902 40.5626 3.5932 40.5626 3.97889C40.5626 4.78882 40.3502 5.33835 39.9261 5.62775Z" fill="#009CDE"/>
</svg>
