<svg width="17" height="17" viewBox="0 0 17 17" fill="none" xmlns="http://www.w3.org/2000/svg">
<path d="M12.5718 16.8703C11.9373 16.8657 11.3055 16.7874 10.6896 16.637C8.56284 16.1325 6.37278 14.8527 4.52386 13.0332C2.67495 11.2138 1.37162 9.06012 0.858479 6.97107C0.318164 4.77355 0.703524 2.89348 1.94236 1.67547L2.29608 1.3277C2.617 1.01279 3.05189 0.835937 3.5053 0.835938C3.9587 0.835938 4.39359 1.01279 4.71452 1.3277L6.74719 3.32581C7.06767 3.64124 7.24769 4.06886 7.24769 4.51471C7.24769 4.96056 7.06767 5.38818 6.74719 5.70361L5.54649 6.88373C6.12209 7.8768 6.90498 8.87068 7.83025 9.7804C8.75552 10.6901 9.7672 11.4602 10.7768 12.0262L11.9771 10.8457C12.1359 10.6895 12.3244 10.5656 12.5319 10.4811C12.7394 10.3966 12.9618 10.3531 13.1864 10.3531C13.4109 10.3531 13.6333 10.3966 13.8408 10.4811C14.0483 10.5656 14.2368 10.6895 14.3956 10.8457L16.4278 12.8438C16.7484 13.1591 16.9285 13.5867 16.9285 14.0325C16.9285 14.4783 16.7484 14.9059 16.4278 15.2212L16.0737 15.5689C15.2004 16.4292 13.9916 16.8703 12.5718 16.8703ZM3.5053 2.03162C3.44053 2.03131 3.37635 2.0437 3.31652 2.06808C3.25668 2.09246 3.2024 2.12834 3.15685 2.17361L2.80272 2.52138C1.87502 3.43349 1.60405 4.91433 2.03971 6.6887C2.50093 8.56837 3.68824 10.5214 5.38261 12.1869C7.07698 13.8524 9.063 15.0186 10.9752 15.4736C12.7803 15.902 14.2856 15.6355 15.2133 14.7234L15.5671 14.3757C15.6595 14.2847 15.7114 14.1614 15.7114 14.0329C15.7114 13.9043 15.6595 13.781 15.5671 13.6901L13.5352 11.692C13.4427 11.6011 13.3173 11.5501 13.1866 11.5501C13.0558 11.5501 12.9304 11.6011 12.8379 11.692L11.3163 13.188C11.225 13.2778 11.107 13.3367 10.9794 13.3562C10.8518 13.3757 10.7212 13.3548 10.6065 13.2964C9.35912 12.6623 8.10163 11.739 6.96989 10.6263C5.83814 9.51358 4.90111 8.27802 4.25452 7.05164C4.19514 6.93889 4.17379 6.81048 4.19355 6.68501C4.21331 6.55954 4.27316 6.4435 4.36445 6.35369L5.88642 4.8577C5.97884 4.76676 6.03075 4.64346 6.03075 4.51491C6.03075 4.38635 5.97884 4.26306 5.88642 4.17212L3.85415 2.17361C3.80845 2.12842 3.75409 2.0926 3.6942 2.06822C3.63432 2.04385 3.57011 2.03141 3.5053 2.03162Z" fill="#98C9E2"/>
<path d="M13.2219 9.67826C13.0606 9.67826 12.9058 9.61523 12.7917 9.50304C12.6776 9.39085 12.6135 9.23868 12.6135 9.08002C12.6123 8.03052 12.1878 7.02434 11.433 6.28219C10.6782 5.54005 9.6549 5.12255 8.58747 5.12128C8.42609 5.12128 8.27133 5.05825 8.15722 4.94606C8.04311 4.83387 7.979 4.6817 7.979 4.52304C7.979 4.36438 8.04311 4.21222 8.15722 4.10002C8.27133 3.98783 8.42609 3.9248 8.58747 3.9248C11.4785 3.9248 13.8304 6.23799 13.8304 9.08002C13.8304 9.23868 13.7663 9.39085 13.6522 9.50304C13.5381 9.61523 13.3833 9.67826 13.2219 9.67826Z" fill="#98C9E2"/>
<path d="M15.7937 9.67849C15.6323 9.67849 15.4776 9.61546 15.3635 9.50327C15.2493 9.39108 15.1852 9.23891 15.1852 9.08025C15.1852 5.50319 12.2241 2.59296 8.58747 2.59296C8.42609 2.59296 8.27133 2.52993 8.15722 2.41774C8.04311 2.30555 7.979 2.15338 7.979 1.99472C7.979 1.83606 8.04311 1.6839 8.15722 1.5717C8.27133 1.45951 8.42609 1.39648 8.58747 1.39648C12.8966 1.39648 16.4022 4.84353 16.4022 9.08025C16.4022 9.23891 16.3381 9.39108 16.224 9.50327C16.1098 9.61546 15.9551 9.67849 15.7937 9.67849Z" fill="#98C9E2"/>
</svg>
