<svg width="42" height="14" viewBox="0 0 42 14" fill="none" xmlns="http://www.w3.org/2000/svg">
<path d="M18.3809 13.3313H15.0035L17.1143 0.358754H20.4921L18.3809 13.3313ZM12.1622 0.358754L8.94232 9.28137L8.5613 7.35998L8.56165 7.36068L7.4252 1.52678C7.4252 1.52678 7.28778 0.358754 5.82306 0.358754H0.499962L0.4375 0.57841C0.4375 0.57841 2.06531 0.917089 3.97039 2.06117L6.90469 13.3316H10.4237L15.7971 0.358754H12.1622ZM38.7274 13.3313H41.8286L39.1247 0.358407H36.4097C35.156 0.358407 34.8506 1.32517 34.8506 1.32517L29.8134 13.3313H33.3342L34.0383 11.4044H38.3318L38.7274 13.3313ZM35.0109 8.74246L36.7855 3.88782L37.7839 8.74246H35.0109ZM30.0775 3.47835L30.5595 0.692575C30.5595 0.692575 29.0722 0.126953 27.5218 0.126953C25.8458 0.126953 21.8656 0.859486 21.8656 4.42152C21.8656 7.77292 26.537 7.81456 26.537 9.57493C26.537 11.3353 22.3469 11.0199 20.9641 9.9098L20.4619 12.8226C20.4619 12.8226 21.97 13.5551 24.2742 13.5551C26.579 13.5551 30.056 12.3618 30.056 9.11376C30.056 5.74085 25.3426 5.4268 25.3426 3.96035C25.3429 2.49355 28.6322 2.68197 30.0775 3.47835Z" fill="#2566AF"/>
<path d="M8.56165 7.36032L7.4252 1.52643C7.4252 1.52643 7.28778 0.358398 5.82306 0.358398H0.499962L0.4375 0.578054C0.4375 0.578054 2.99599 1.10828 5.45003 3.0949C7.79649 4.99373 8.56165 7.36032 8.56165 7.36032Z" fill="#E6A540"/>
</svg>
